<svg xmlns="http://www.w3.org/2000/svg" width="39" height="56" viewBox="0 0 39 56"><defs><linearGradient id="a" x1="50%" x2="50%" y1="0%" y2="100%"><stop offset="0%" stop-color="#4DC1C0"/><stop offset="100%" stop-color="#218485"/></linearGradient></defs><g fill="none" fill-rule="evenodd"><ellipse cx="19.5" cy="54" fill="#EBEBEB" rx="12.5" ry="2"/><path fill="url(#a)" d="M20.355.676s-1.092-1.52-2.184 0L.485 25.304s-1.092 1.52 0 3.04l17.686 24.629s1.092 1.52 2.184 0L38.04 28.345s1.092-1.521 0-3.041L20.355.676z"/><path fill="#FFF" fill-rule="nonzero" d="M17.614 22.099v2.203H16v2.693h1.614V35h3.315v-8.005h2.225s.208-1.291.31-2.703h-2.522V22.45c0-.275.361-.646.718-.646h1.807V19H21.01c-3.479 0-3.397 2.696-3.397 3.099z"/></g></svg>