<svg xmlns="http://www.w3.org/2000/svg" width="39" height="56" viewBox="0 0 39 56"><defs><linearGradient id="a" x1="50%" x2="50%" y1="0%" y2="100%"><stop offset="0%" stop-color="#4DC1C0"/><stop offset="100%" stop-color="#218485"/></linearGradient></defs><g fill="none" fill-rule="evenodd"><ellipse cx="19.5" cy="54" fill="#EBEBEB" rx="12.5" ry="2"/><path fill="url(#a)" d="M20.355.676s-1.092-1.52-2.184 0L.485 25.304s-1.092 1.52 0 3.04l17.686 24.629s1.092 1.52 2.184 0L38.04 28.345s1.092-1.521 0-3.041L20.355.676z"/><path fill="#FFF" fill-rule="nonzero" d="M26 28.202v5.176h-3v-4.83c0-1.213-.435-2.04-1.52-2.04-.83 0-1.323.557-1.54 1.097-.08.193-.1.462-.1.732v5.04h-3.002s.04-8.178 0-9.026h3.002v1.28l-.02.029h.02v-.03c.399-.613 1.11-1.49 2.705-1.49 1.975 0 3.455 1.29 3.455 4.062zM13.699 20C12.672 20 12 20.674 12 21.56c0 .866.652 1.56 1.659 1.56h.02c1.046 0 1.697-.694 1.697-1.56-.02-.886-.65-1.56-1.677-1.56zm-1.52 13.378h3V24.35h-3v9.027z"/></g></svg>