<svg xmlns="http://www.w3.org/2000/svg" width="110" height="80" viewBox="0 0 110 80" class="w-100"><g fill="none" fill-rule="evenodd"><path fill="#429FD8" d="M35.01 13.778c4.831 0 4.831 10.013 0 10.013-4.775 0-4.775-10.013 0-10.013M18.896 23.861l9.274 12.765-16.635 20.838c4.03-1.206 8.463-2.247 13.219-3.095l8.798-10.466 6.164 8.549c3.354-.276 6.806-.46 10.331-.55L38.873 36.625l14.8-20.333a.787.787 0 0 0-.004-.948l-4.377-5.907a.778.778 0 0 0-.648-.328.777.777 0 0 0-.64.333l-14.451 19.82-2.515-3.355c-2.85-3.922-14.061-4.68-12.141-2.047"/><path fill="#F9A11B" d="M74.9 13.778c-4.832 0-4.832 10.013 0 10.013 4.775 0 4.775-10.013 0-10.013M91.01 23.861l-9.27 12.765 16.63 20.837c-4.03-1.205-8.462-2.247-13.218-3.094l-8.794-10.466-6.164 8.55a183.95 183.95 0 0 0-10.335-.552l11.178-15.275-14.803-20.333a.794.794 0 0 1 .004-.948l4.376-5.907a.776.776 0 0 1 .645-.328c.262 0 .488.12.644.333l14.455 19.82 2.51-3.355c2.249-3.082 13.963-4.58 12.142-2.047"/><path fill="#006FB9" d="M13.682 73.654L15.22 74.8c-.707 1.342-1.681 2.378-2.908 3.1-1.233.72-2.632 1.084-4.198 1.084-2.317 0-4.222-.764-5.731-2.288-1.505-1.523-2.26-3.458-2.26-5.803 0-2.35.755-4.288 2.27-5.812 1.508-1.524 3.419-2.288 5.72-2.288 1.429 0 2.727.31 3.902.937a7.591 7.591 0 0 1 2.87 2.674l-1.609 1.146a5.298 5.298 0 0 0-2.096-2.168c-.917-.52-1.94-.783-3.066-.783-1.734 0-3.172.597-4.313 1.786-1.137 1.189-1.705 2.693-1.705 4.508 0 1.82.568 3.324 1.705 4.509 1.141 1.184 2.579 1.776 4.313 1.776 1.213 0 2.287-.3 3.233-.897.94-.598 1.72-1.471 2.335-2.627M16.879 78.858V65.437h12.589v1.964H18.987v3.352h6.882v1.931h-6.882v4.243h11.065v1.931zM33.067 78.858V65.437h1.099l8.534 9.43v-9.43h2.06v13.421h-1.1l-8.518-9.398v9.398zM52.537 78.858V67.31h-5.658v-1.873h13.425v1.873h-5.675v11.548zM62.407 65.47h2.108v8.598c0 1.287.305 2.156.912 2.607.606.45 1.813.675 3.615.675 1.808 0 3.02-.225 3.626-.675.606-.45.912-1.32.912-2.607V65.47h2.092v9.145c0 1.647-.52 2.832-1.566 3.567-1.041.735-2.742 1.1-5.096 1.1-2.35 0-4.034-.36-5.064-1.084-1.024-.724-1.54-1.915-1.54-3.583V65.47zM82.414 72.995v5.863h-2.108V65.469h9.242c1.373 0 2.446.333 3.218.993.778.66 1.164 1.571 1.164 2.746 0 .955-.306 1.78-.917 2.473-.612.697-1.411 1.126-2.398 1.282l3.723 5.895h-2.28l-3.798-5.863h-5.846zm0-1.963h7.134c.724 0 1.277-.155 1.657-.472.381-.317.574-.767.574-1.352 0-.584-.193-1.035-.574-1.346-.38-.306-.933-.461-1.657-.461h-7.134v3.631zM101.021 78.858v-6.85l-6.115-6.571h2.704l4.446 4.764 4.372-4.764h2.8l-6.147 6.539v6.882z"/><path fill="#00B7B0" d="M109.908 62.645c-12.624-5.716-32.542-9.406-54.954-9.406S12.624 56.929 0 62.645c15.371-2.929 34.378-4.662 54.954-4.662 20.575 0 39.582 1.733 54.954 4.662M54.325 13.491l-4.389-5.935a.794.794 0 0 1 0-.948L54.326.64c.155-.213-.2.152.224-.26.404-.39.404-.39 1.063.264l4.356 5.964c.21.288.214.66 0 .948l-4.356 5.931a.759.759 0 0 1-.644.324.777.777 0 0 1-.644-.32"/></g></svg>
