<svg xmlns="http://www.w3.org/2000/svg" width="39" height="56" viewBox="0 0 39 56"><defs><linearGradient id="a" x1="50%" x2="50%" y1="0%" y2="100%"><stop offset="0%" stop-color="#4DC1C0"/><stop offset="100%" stop-color="#218485"/></linearGradient></defs><g fill="none" fill-rule="evenodd"><ellipse cx="19.5" cy="54" fill="#EBEBEB" rx="12.5" ry="2"/><path fill="url(#a)" d="M20.355.676s-1.092-1.52-2.184 0L.485 25.304s-1.092 1.52 0 3.04l17.686 24.629s1.092 1.52 2.184 0L38.04 28.345s1.092-1.521 0-3.041L20.355.676z"/><path fill="#FFF" fill-rule="nonzero" d="M27.969 22.549c-.59.259-1.22.436-1.884.516a3.305 3.305 0 0 0 1.442-1.815c-.634.37-1.336.64-2.084.79a3.28 3.28 0 0 0-5.59 2.988 9.29 9.29 0 0 1-6.76-3.418 3.214 3.214 0 0 0-.444 1.65c0 1.14.58 2.142 1.459 2.73a3.27 3.27 0 0 1-1.485-.41v.04a3.282 3.282 0 0 0 2.63 3.218 3.33 3.33 0 0 1-1.474.057 3.291 3.291 0 0 0 3.069 2.278 6.578 6.578 0 0 1-4.068 1.403c-.26 0-.52-.015-.78-.044a9.33 9.33 0 0 0 5.038 1.472c6.036 0 9.332-4.997 9.332-9.323 0-.14 0-.28-.01-.42.64-.46 1.2-1.04 1.64-1.7l-.031-.012z"/></g></svg>